<!--?xml version="1.0" encoding="utf-8"?-->
<svg viewBox="0 0 984.039 496.518" xmlns="http://www.w3.org/2000/svg" style="">
  <path style="stroke: rgb(0, 0, 0); fill: rgb(255, 96, 10); stroke-width: 3px;" d="M 80.768 155.13 L 225.018 155.319 L 208.431 201.121 L 167.153 200.367 L 215.174 272.279 C 215.174 272.279 289.204 64.051 289.452 64.051 C 289.7 64.051 437.514 64.546 437.514 64.546 L 388.242 201.219 L 338.723 201.219 L 369.92 111.589 L 321.144 111.093 L 227.576 372.106 L 80.768 155.13 Z" transform="matrix(1, 0, 0, 1, -17.038327, 38.869256)" class="hwNcGdCp_0"></path>
  <path style="stroke: rgb(0, 0, 0); fill: rgb(3, 104, 156); stroke-width: 3px;" d="M 276.937 156.291 L 421.187 156.48 L 404.6 202.282 L 363.322 201.528 L 411.343 273.44 C 411.343 273.44 485.373 65.212 485.621 65.212 C 485.869 65.212 633.683 65.707 633.683 65.707 L 584.411 202.38 L 534.892 202.38 L 566.089 112.75 L 517.313 112.254 L 423.745 373.267 L 276.937 156.291 Z" transform="matrix(-0.999982, 0.005988, -0.005988, -0.999982, 894.886366, 474.617805)" class="hwNcGdCp_1"></path>
  <path d="M 746.8622802734375 207.06076049804688 L 743.7050537109375 210.21798706054688 L 740.1784912109375 210.21798706054688 L 740.1784912109375 207.26329956054687 L 741.4890380859375 207.26329956054687 L 741.4890380859375 200.72247924804688 L 740.1784912109375 200.72247924804688 L 740.1784912109375 197.56525268554688 L 743.7050537109375 197.56525268554688 L 746.8622802734375 200.72247924804688 Z M 737.9743896484375 207.26329956054687 L 739.3445068359375 207.26329956054687 L 739.3445068359375 210.21798706054688 L 735.8060302734375 210.21798706054688 L 732.6488037109375 207.06076049804688 L 732.6488037109375 200.72247924804688 L 735.8060302734375 197.56525268554688 L 739.3445068359375 197.56525268554688 L 739.3445068359375 200.72247924804688 L 737.9743896484375 200.72247924804688 Z M 757.5834350585938 200.72247924804688 L 755.3435913085938 200.72247924804688 L 755.3435913085938 199.34044799804687 L 757.1068725585938 197.56525268554688 L 760.2998413085937 197.56525268554688 L 762.8613647460937 200.5199401855469 L 762.8613647460937 203.7963073730469 L 757.5834350585938 203.7963073730469 Z M 749.2316772460938 210.21798706054688 L 749.2316772460938 197.56525268554688 L 754.4976928710937 197.56525268554688 L 754.4976928710937 210.21798706054688 Z M 764.4939575195312 197.56525268554688 L 769.7718872070312 197.56525268554688 L 769.7718872070312 210.21798706054688 L 764.4939575195312 210.21798706054688 Z M 764.4939575195312 192.63283081054686 L 769.7718872070312 192.63283081054686 L 769.7718872070312 195.9925964355469 L 764.4939575195312 195.9925964355469 Z M 784.0203369140625 210.21798706054688 L 776.6574462890625 210.21798706054688 L 779.4572509765625 207.06076049804688 L 784.0203369140625 207.06076049804688 Z M 772.2730712890625 197.56525268554688 L 779.3857666015625 197.56525268554688 L 776.6574462890625 200.72247924804688 L 772.2730712890625 200.72247924804688 Z M 772.1539306640625 207.15607299804688 L 780.3746337890625 197.56525268554688 L 784.0084228515625 197.56525268554688 L 784.0084228515625 200.72247924804688 L 775.6804931640625 210.21798706054688 L 772.1539306640625 210.21798706054688 Z M 794.6701538085938 210.21798706054688 L 794.6701538085938 200.72247924804688 L 787.1762084960938 200.72247924804688 L 787.1762084960938 199.1498229980469 L 788.7607788085937 197.56525268554688 L 796.6598022460937 197.56525268554688 L 799.8170288085937 200.72247924804688 L 799.8170288085937 210.21798706054688 Z M 793.8361694335938 202.85509643554687 L 793.8361694335938 205.0472839355469 L 791.1197631835937 205.0472839355469 L 791.1197631835937 207.26329956054687 L 793.8361694335938 207.26329956054687 L 793.8361694335938 208.65724487304686 L 792.2635131835938 210.21798706054688 L 788.2365600585938 210.21798706054688 L 786.1158569335937 208.13302612304688 L 786.1158569335937 204.96388549804686 L 788.2365600585938 202.85509643554687 Z M 802.18828125 210.21798706054688 L 802.18828125 197.56525268554688 L 807.501953125 197.56525268554688 L 807.501953125 210.21798706054688 Z M 810.6234375 200.72247924804688 L 808.359765625 200.72247924804688 L 808.359765625 199.34044799804687 L 810.123046875 197.56525268554688 L 813.05390625 197.56525268554688 L 815.9013671875 200.41271362304687 L 815.9013671875 210.21798706054688 L 810.6234375 210.21798706054688 Z" transform="matrix(5.980567, 0, 0, 6.515977, -3913.102597, -959.079604)" style="fill: rgb(84, 84, 84); white-space: pre;" class="hwNcGdCp_2"></path>
<style data-made-with="vivus-instant">.hwNcGdCp_0{stroke-dasharray:1568 1570;stroke-dashoffset:1569;animation:hwNcGdCp_draw_0 6800ms linear 0ms infinite,hwNcGdCp_fade 6800ms linear 0ms infinite;}.hwNcGdCp_1{stroke-dasharray:1568 1570;stroke-dashoffset:1569;animation:hwNcGdCp_draw_1 6800ms linear 0ms infinite,hwNcGdCp_fade 6800ms linear 0ms infinite;}.hwNcGdCp_2{stroke-dasharray:420 422;stroke-dashoffset:421;animation:hwNcGdCp_draw_2 6800ms linear 0ms infinite,hwNcGdCp_fade 6800ms linear 0ms infinite;}@keyframes hwNcGdCp_draw{100%{stroke-dashoffset:0;}}@keyframes hwNcGdCp_fade{0%{stroke-opacity:1;}94.11764705882354%{stroke-opacity:1;}100%{stroke-opacity:0;}}@keyframes hwNcGdCp_draw_0{5.88235294117647%{stroke-dashoffset: 1569}35.294117647058826%{ stroke-dashoffset: 0;}100%{ stroke-dashoffset: 0;}}@keyframes hwNcGdCp_draw_1{13.23529411764706%{stroke-dashoffset: 1569}42.64705882352941%{ stroke-dashoffset: 0;}100%{ stroke-dashoffset: 0;}}@keyframes hwNcGdCp_draw_2{20.588235294117645%{stroke-dashoffset: 421}50%{ stroke-dashoffset: 0;}100%{ stroke-dashoffset: 0;}}</style></svg>