<?xml version="1.0" encoding="utf-8"?>
<svg viewBox="74.308 -22.584 583 583" xmlns="http://www.w3.org/2000/svg">
  <path style="stroke: rgb(0, 0, 0); fill: rgb(255, 96, 10); stroke-width: 3px;" d="M 87.771 183.753 L 232.021 183.942 L 215.434 229.744 L 174.156 228.99 L 222.177 300.902 C 222.177 300.902 296.207 92.674 296.455 92.674 C 296.703 92.674 444.517 93.169 444.517 93.169 L 395.245 229.842 L 345.726 229.842 L 376.923 140.212 L 328.147 139.716 L 234.579 400.729 L 87.771 183.753 Z"/>
  <path style="stroke: rgb(0, 0, 0); fill: rgb(3, 104, 156); stroke-width: 3px;" d="M 283.94 184.914 L 428.19 185.103 L 411.603 230.905 L 370.325 230.151 L 418.346 302.063 C 418.346 302.063 492.376 93.835 492.624 93.835 C 492.872 93.835 640.686 94.33 640.686 94.33 L 591.414 231.003 L 541.895 231.003 L 573.092 141.373 L 524.316 140.877 L 430.748 401.89 L 283.94 184.914 Z" transform="matrix(-0.999982, 0.005988, -0.005988, -0.999982, 926.101881, 492.952247)"/>
</svg>