<?xml version="1.0" encoding="utf-8"?>
<svg viewBox="0 0 500 500" xmlns="http://www.w3.org/2000/svg">
  <path d="M 137.04995727539062 199.2899932861328 L 137.04995727539062 164.3007354736328 L 148.70425415039062 164.3007354736328 L 148.70425415039062 199.2899932861328 Z M 150.54995727539062 171.2880401611328 L 150.54995727539062 164.3007354736328 L 163.86538696289062 164.3007354736328 L 170.87905883789062 171.2880401611328 L 170.87905883789062 181.7821807861328 L 165.50015258789062 187.1610870361328 L 165.13101196289062 186.4228057861328 L 154.18862915039062 187.8730010986328 L 154.61050415039062 188.7958526611328 L 150.54995727539062 188.7958526611328 L 150.54995727539062 182.0194854736328 L 159.30386352539062 182.0194854736328 L 159.30386352539062 171.2880401611328 Z M 172.06558227539062 199.2899932861328 L 159.62026977539062 199.2899932861328 L 154.61050415039062 188.7958526611328 L 163.86538696289062 188.7958526611328 L 165.50015258789062 187.1610870361328 Z M 187.29917907714844 199.2899932861328 L 182.63218688964844 199.2899932861328 L 175.64488220214844 192.3026885986328 L 175.64488220214844 178.2753448486328 L 182.63218688964844 171.2880401611328 L 187.29917907714844 171.2880401611328 Z M 189.14488220214844 188.0575714111328 L 189.14488220214844 183.1796417236328 L 195.28843688964844 183.1796417236328 L 195.28843688964844 178.2753448486328 L 189.14488220214844 178.2753448486328 L 189.14488220214844 171.2880401611328 L 199.03257751464844 171.2880401611328 L 206.01988220214844 178.2753448486328 L 206.01988220214844 188.0575714111328 Z M 189.14488220214844 199.2899932861328 L 189.14488220214844 192.7509307861328 L 204.80699157714844 192.7509307861328 L 204.80699157714844 195.7831573486328 L 201.32652282714844 199.2899932861328 Z M 229.412841796875 178.2753448486328 L 224.244873046875 178.2753448486328 L 224.244873046875 171.2880401611328 L 234.079833984375 171.2880401611328 L 241.067138671875 178.2753448486328 L 241.067138671875 202.0585479736328 L 234.079833984375 209.0985870361328 L 218.707763671875 209.0985870361328 L 215.200927734375 205.5653839111328 L 215.200927734375 202.9813995361328 L 229.412841796875 202.9813995361328 Z M 227.567138671875 192.7509307861328 L 227.567138671875 195.8358917236328 L 224.086669921875 199.2899932861328 L 217.732177734375 199.2899932861328 L 210.744873046875 192.3026885986328 L 210.744873046875 178.2753448486328 L 217.732177734375 171.2880401611328 L 222.399169921875 171.2880401611328 L 222.399169921875 192.7509307861328 Z M 246.3335418701172 171.2880401611328 L 258.0142059326172 171.2880401611328 L 258.0142059326172 199.2899932861328 L 246.3335418701172 199.2899932861328 Z M 246.3335418701172 160.3720245361328 L 258.0142059326172 160.3720245361328 L 258.0142059326172 167.8075714111328 L 246.3335418701172 167.8075714111328 Z M 269.6230163574219 171.2880401611328 L 274.2900085449219 171.2880401611328 L 274.2900085449219 181.1757354736328 L 287.5790710449219 181.1757354736328 L 293.6435241699219 187.2929229736328 L 293.6435241699219 192.7509307861328 L 287.1308288574219 199.2899932861328 L 281.9892272949219 199.2899932861328 L 281.9892272949219 188.7167510986328 L 269.3857116699219 188.7167510986328 L 263.3212585449219 182.8896026611328 L 263.3212585449219 177.5634307861328 Z M 274.9755554199219 194.1483917236328 L 280.1435241699219 194.1483917236328 L 280.1435241699219 199.2899932861328 L 268.1464538574219 199.2636260986328 L 263.2948913574219 193.5155792236328 L 263.2948913574219 191.2743682861328 L 274.9755554199219 191.2743682861328 Z M 281.9892272949219 176.4296417236328 L 276.1357116699219 176.4296417236328 L 276.1357116699219 171.2880401611328 L 288.5282897949219 171.2880401611328 L 292.6943054199219 175.4540557861328 L 292.6943054199219 178.6181182861328 L 281.9892272949219 178.6181182861328 Z M 310.1653747558594 192.3026885986328 L 317.8645935058594 192.3026885986328 L 317.8645935058594 199.2899932861328 L 305.5247497558594 199.2899932861328 L 298.5110778808594 192.3026885986328 L 298.5110778808594 178.2753448486328 L 296.1907653808594 178.2753448486328 L 296.1907653808594 171.2880401611328 L 298.5110778808594 171.2880401611328 L 298.5110778808594 168.2558135986328 L 310.1653747558594 164.3007354736328 Z M 312.0110778808594 178.2753448486328 L 312.0110778808594 171.2880401611328 L 318.2864685058594 171.2880401611328 L 318.2864685058594 178.2753448486328 Z M 333.7491760253906 199.2899932861328 L 329.0821838378906 199.2899932861328 L 322.0948791503906 192.3026885986328 L 322.0948791503906 178.2753448486328 L 329.0821838378906 171.2880401611328 L 333.7491760253906 171.2880401611328 Z M 335.5948791503906 188.0575714111328 L 335.5948791503906 183.1796417236328 L 341.7384338378906 183.1796417236328 L 341.7384338378906 178.2753448486328 L 335.5948791503906 178.2753448486328 L 335.5948791503906 171.2880401611328 L 345.4825744628906 171.2880401611328 L 352.4698791503906 178.2753448486328 L 352.4698791503906 188.0575714111328 Z M 335.5948791503906 199.2899932861328 L 335.5948791503906 192.7509307861328 L 351.2569885253906 192.7509307861328 L 351.2569885253906 195.7831573486328 L 347.7765197753906 199.2899932861328 Z M 375.903076171875 178.2753448486328 L 370.946044921875 178.2753448486328 L 370.946044921875 175.2167510986328 L 374.848388671875 171.2880401611328 L 381.914794921875 171.2880401611328 L 387.583740234375 177.8271026611328 L 387.583740234375 185.0780792236328 L 375.903076171875 185.0780792236328 Z M 357.419677734375 199.2899932861328 L 357.419677734375 171.2880401611328 L 369.073974609375 171.2880401611328 L 369.073974609375 199.2899932861328 Z" transform="matrix(1, 0, 0, 1, 0, 0)" style="fill: rgba(51, 51, 51, 0.75); white-space: pre; text-decoration: underline solid rgba(255, 255, 255, 0.9);"/>
</svg>